<svg width="38" height="38" viewBox="0 0 38 38" fill="none" xmlns="http://www.w3.org/2000/svg">
<path d="M19.0002 0C8.50803 0 0 8.72175 0 19.481C0 28.0883 5.44412 35.3906 12.9935 37.9665C13.943 38.1468 14.2916 37.5439 14.2916 37.0294C14.2916 36.5648 14.274 35.0302 14.2658 33.4024C8.97999 34.5809 7.86461 31.1039 7.86461 31.1039C7.00031 28.8522 5.75498 28.2534 5.75498 28.2534C4.0311 27.0443 5.88493 27.0692 5.88493 27.0692C7.79287 27.2066 8.7975 29.0767 8.7975 29.0767C10.4921 32.0549 13.2423 31.1939 14.3266 30.6961C14.4971 29.437 14.9895 28.5776 15.5329 28.0912C11.3127 27.5986 6.87634 25.9281 6.87634 18.4636C6.87634 16.3367 7.61856 14.5988 8.834 13.2346C8.63672 12.7439 7.98637 10.7625 9.01806 8.07914C9.01806 8.07914 10.6136 7.55556 14.2445 10.076C15.76 9.64438 17.3855 9.42792 19.0002 9.4205C20.6149 9.42792 22.2415 9.64438 23.76 10.076C27.3864 7.55556 28.9797 8.07914 28.9797 8.07914C30.0139 10.7625 29.3633 12.7439 29.166 13.2346C30.3843 14.5988 31.1215 16.3367 31.1215 18.4636C31.1215 25.9459 26.6766 27.5934 22.4457 28.0757C23.1272 28.6802 23.7345 29.8658 23.7345 31.6833C23.7345 34.2899 23.7124 36.3877 23.7124 37.0294C23.7124 37.5478 24.0544 38.1552 25.0175 37.9639C32.5628 35.3851 38 28.0854 38 19.481C38 8.72175 29.4932 0 19.0002 0ZM7.11618 27.7511C7.07433 27.8479 6.92582 27.8769 6.79053 27.8105C6.65272 27.7469 6.57532 27.615 6.62 27.5179C6.6609 27.4182 6.80972 27.3905 6.94722 27.4572C7.08534 27.5208 7.164 27.654 7.11618 27.7511ZM8.05077 28.6062C7.96016 28.6923 7.78302 28.6523 7.66283 28.5162C7.53855 28.3803 7.51527 28.1987 7.60714 28.1113C7.70059 28.0252 7.87238 28.0655 7.99697 28.2013C8.12125 28.3387 8.14548 28.5191 8.05077 28.6062ZM8.69194 29.7002C8.57553 29.7831 8.38517 29.7053 8.2675 29.5321C8.15109 29.3588 8.15109 29.1511 8.27002 29.0679C8.388 28.9846 8.57553 29.0595 8.69477 29.2314C8.81087 29.4076 8.81087 29.6153 8.69194 29.7002ZM9.7763 30.9671C9.67215 31.0849 9.45033 31.0533 9.28798 30.8926C9.12186 30.7355 9.0756 30.5126 9.18006 30.3949C9.28547 30.2768 9.50854 30.31 9.67215 30.4694C9.83702 30.6262 9.88736 30.8507 9.7763 30.9671ZM11.1777 31.3949C11.1318 31.5475 10.9181 31.6168 10.7029 31.552C10.488 31.4852 10.3474 31.3065 10.3908 31.1523C10.4355 30.9987 10.6501 30.9265 10.8669 30.9958C11.0814 31.0623 11.2224 31.2397 11.1777 31.3949ZM12.7726 31.5763C12.7779 31.7369 12.5955 31.8702 12.3695 31.8731C12.1424 31.8782 11.9586 31.7482 11.9561 31.5902C11.9561 31.4279 12.1345 31.296 12.3617 31.2921C12.5876 31.2876 12.7726 31.4166 12.7726 31.5763ZM14.3394 31.5147C14.3664 31.6715 14.2094 31.8325 13.9851 31.8754C13.7645 31.9167 13.5603 31.8199 13.5323 31.6644C13.505 31.5037 13.6648 31.3428 13.885 31.3012C14.1097 31.2612 14.3107 31.3554 14.3394 31.5147Z" fill="#444444"/>
</svg>
