<svg width="38" height="38" viewBox="0 0 38 38" fill="none" xmlns="http://www.w3.org/2000/svg">
<path fill-rule="evenodd" clip-rule="evenodd" d="M19 0C8.50662 0 0 8.50662 0 19C0 29.4934 8.50662 38 19 38C29.4934 38 38 29.4934 38 19C38 8.50662 29.4934 0 19 0ZM9.12127 15.7366H13.4271V28.6739H9.12127V15.7366ZM13.7107 11.7346C13.6828 10.4661 12.7757 9.5 11.3026 9.5C9.82965 9.5 8.86667 10.4661 8.86667 11.7346C8.86667 12.9768 9.80123 13.9708 11.2467 13.9708H11.2743C12.7757 13.9708 13.7107 12.9768 13.7107 11.7346ZM23.9979 15.4328C26.8313 15.4328 28.9555 17.2823 28.9555 21.256L28.9554 28.6739H24.6497V21.7524C24.6497 20.0139 24.0266 18.8276 22.4679 18.8276C21.2783 18.8276 20.5698 19.6273 20.2586 20.3998C20.1448 20.6766 20.1168 21.0623 20.1168 21.4489V28.6742H15.8105C15.8105 28.6742 15.8672 16.9509 15.8105 15.737H20.1168V17.5694C20.6882 16.6885 21.7118 15.4328 23.9979 15.4328Z" fill="#444444"/>
</svg>
