<svg width="156" height="35" viewBox="0 0 156 35" fill="none" xmlns="http://www.w3.org/2000/svg">
<path d="M8.85447 11.1976L3.998 26H0.0858467L6.72057 8.14389H9.21012L8.85447 11.1976ZM12.8893 26L8.02053 11.1976L7.62809 8.14389H10.1422L16.8137 26H12.8893ZM12.6685 19.353V22.235H3.23765V19.353H12.6685ZM23.7305 23.4859C24.1638 23.4859 24.5481 23.4042 24.8833 23.2406C25.2185 23.0689 25.4801 22.8318 25.6682 22.5293C25.8644 22.2187 25.9666 21.8548 25.9747 21.4379H29.2982C29.2901 22.3699 29.0407 23.1998 28.5501 23.9274C28.0596 24.6469 27.4014 25.2151 26.5757 25.6321C25.7499 26.0409 24.826 26.2453 23.8041 26.2453C22.7739 26.2453 21.8745 26.0736 21.106 25.7302C20.3457 25.3868 19.712 24.9126 19.2051 24.3076C18.6982 23.6944 18.318 22.9831 18.0646 22.1737C17.8111 21.3561 17.6844 20.4813 17.6844 19.5492V19.1936C17.6844 18.2534 17.8111 17.3785 18.0646 16.5691C18.318 15.7515 18.6982 15.0402 19.2051 14.4352C19.712 13.822 20.3457 13.3437 21.106 13.0004C21.8664 12.657 22.7575 12.4853 23.7795 12.4853C24.8669 12.4853 25.8194 12.6938 26.637 13.1107C27.4628 13.5277 28.1086 14.1245 28.5747 14.9013C29.0489 15.6698 29.2901 16.5814 29.2982 17.6361H25.9747C25.9666 17.1946 25.8725 16.794 25.6927 16.4342C25.521 16.0745 25.2675 15.7883 24.9323 15.5758C24.6053 15.355 24.2006 15.2446 23.7182 15.2446C23.2031 15.2446 22.7821 15.355 22.455 15.5758C22.128 15.7883 21.8745 16.0827 21.6947 16.4588C21.5148 16.8267 21.3881 17.2477 21.3145 17.7219C21.2491 18.188 21.2164 18.6785 21.2164 19.1936V19.5492C21.2164 20.0643 21.2491 20.559 21.3145 21.0332C21.3799 21.5074 21.5025 21.9284 21.6824 22.2963C21.8705 22.6642 22.128 22.9545 22.455 23.1671C22.7821 23.3796 23.2072 23.4859 23.7305 23.4859ZM35.0745 12.7306V26H31.5303V12.7306H35.0745ZM31.3095 9.27217C31.3095 8.75709 31.4894 8.33194 31.8491 7.99673C32.2088 7.66152 32.6912 7.49391 33.2962 7.49391C33.8931 7.49391 34.3714 7.66152 34.7311 7.99673C35.099 8.33194 35.283 8.75709 35.283 9.27217C35.283 9.78725 35.099 10.2124 34.7311 10.5476C34.3714 10.8828 33.8931 11.0504 33.2962 11.0504C32.6912 11.0504 32.2088 10.8828 31.8491 10.5476C31.4894 10.2124 31.3095 9.78725 31.3095 9.27217ZM37.4291 19.5002V19.2426C37.4291 18.2697 37.5681 17.3745 37.8461 16.5569C38.1241 15.7311 38.5288 15.0157 39.0602 14.4107C39.5917 13.8057 40.2457 13.3356 41.0224 13.0004C41.7991 12.657 42.6903 12.4853 43.6959 12.4853C44.7016 12.4853 45.5968 12.657 46.3817 13.0004C47.1666 13.3356 47.8248 13.8057 48.3562 14.4107C48.8958 15.0157 49.3046 15.7311 49.5826 16.5569C49.8606 17.3745 49.9995 18.2697 49.9995 19.2426V19.5002C49.9995 20.4649 49.8606 21.3602 49.5826 22.186C49.3046 23.0035 48.8958 23.7189 48.3562 24.3321C47.8248 24.9371 47.1707 25.4072 46.394 25.7425C45.6173 26.0777 44.7261 26.2453 43.7205 26.2453C42.7148 26.2453 41.8196 26.0777 41.0347 25.7425C40.258 25.4072 39.5998 24.9371 39.0602 24.3321C38.5288 23.7189 38.1241 23.0035 37.8461 22.186C37.5681 21.3602 37.4291 20.4649 37.4291 19.5002ZM40.9611 19.2426V19.5002C40.9611 20.0561 41.0102 20.5753 41.1083 21.0577C41.2064 21.5401 41.3617 21.9652 41.5743 22.3331C41.7951 22.6929 42.0812 22.9749 42.4328 23.1793C42.7843 23.3837 43.2136 23.4859 43.7205 23.4859C44.211 23.4859 44.6321 23.3837 44.9836 23.1793C45.3352 22.9749 45.6173 22.6929 45.8299 22.3331C46.0424 21.9652 46.1978 21.5401 46.2959 21.0577C46.4022 20.5753 46.4553 20.0561 46.4553 19.5002V19.2426C46.4553 18.703 46.4022 18.1961 46.2959 17.7219C46.1978 17.2396 46.0383 16.8144 45.8176 16.4465C45.605 16.0704 45.3229 15.7761 44.9714 15.5635C44.6198 15.3509 44.1947 15.2446 43.6959 15.2446C43.1972 15.2446 42.7721 15.3509 42.4205 15.5635C42.0771 15.7761 41.7951 16.0704 41.5743 16.4465C41.3617 16.8144 41.2064 17.2396 41.1083 17.7219C41.0102 18.1961 40.9611 18.703 40.9611 19.2426ZM55.8984 7.16279V26H52.3542V7.16279H55.8984ZM64.9246 26.2453C63.8944 26.2453 62.9706 26.0818 62.153 25.7547C61.3354 25.4195 60.6404 24.9576 60.0681 24.3689C59.504 23.7803 59.0707 23.0976 58.7682 22.3209C58.4657 21.536 58.3144 20.702 58.3144 19.819V19.3285C58.3144 18.3229 58.4575 17.4031 58.7436 16.5691C59.0298 15.7352 59.4386 15.0116 59.97 14.3984C60.5096 13.7852 61.1637 13.3151 61.9322 12.9881C62.7008 12.6529 63.5674 12.4853 64.5322 12.4853C65.4724 12.4853 66.3063 12.6406 67.034 12.9513C67.7616 13.262 68.3707 13.7035 68.8613 14.2758C69.36 14.8481 69.7361 15.5349 69.9896 16.3361C70.243 17.1292 70.3697 18.0122 70.3697 18.9851V20.4568H59.8229V18.1021H66.8991V17.8323C66.8991 17.3418 66.8091 16.9043 66.6293 16.5201C66.4576 16.1276 66.196 15.817 65.8444 15.588C65.4928 15.3591 65.0432 15.2446 64.4954 15.2446C64.0293 15.2446 63.6287 15.3468 63.2935 15.5512C62.9583 15.7556 62.6844 16.0418 62.4718 16.4097C62.2674 16.7776 62.1121 17.2109 62.0058 17.7097C61.9077 18.2002 61.8587 18.7398 61.8587 19.3285V19.819C61.8587 20.3505 61.9322 20.841 62.0794 21.2907C62.2347 21.7404 62.4514 22.1287 62.7294 22.4558C63.0155 22.7828 63.3589 23.0362 63.7595 23.2161C64.1683 23.396 64.6303 23.4859 65.1454 23.4859C65.7831 23.4859 66.3758 23.3633 66.9236 23.118C67.4796 22.8646 67.9579 22.4844 68.3585 21.9775L70.0754 23.8416C69.7974 24.2422 69.4172 24.6265 68.9349 24.9944C68.4607 25.3623 67.8884 25.6648 67.2179 25.9019C66.5475 26.1308 65.7831 26.2453 64.9246 26.2453Z" fill="#313946"/>
<rect x="78.3024" width="77.6976" height="34.8597" rx="7.32558" fill="#4C84FF"/>
<path d="M93.3473 26.3265C92.5436 26.3265 91.7734 26.2428 91.0366 26.0753C90.2999 25.9247 89.6385 25.7488 89.0524 25.5479C88.4831 25.347 88.0311 25.1712 87.6962 25.0205C87.3613 24.853 87.1938 24.7693 87.1938 24.7693C87.1938 24.7693 87.2441 24.6186 87.3445 24.3172C87.445 23.9991 87.5538 23.6391 87.6711 23.2372C87.805 22.8186 87.9222 22.4586 88.0227 22.1572C88.1231 21.8558 88.1734 21.7051 88.1734 21.7051C88.1734 21.7051 88.3408 21.7721 88.6757 21.906C89.0273 22.0233 89.4794 22.1656 90.032 22.333C90.6013 22.4837 91.2124 22.626 91.8655 22.76C92.5352 22.8772 93.1966 22.9358 93.8497 22.9358C94.1678 22.9358 94.419 22.9107 94.6031 22.8605C94.7873 22.7935 94.9297 22.7265 95.0301 22.6595C95.2143 22.5423 95.3566 22.3581 95.4571 22.107C95.5743 21.8558 95.6329 21.4958 95.6329 21.027C95.6329 20.6084 95.4655 20.2567 95.1306 19.9721C94.7957 19.6707 94.3604 19.3944 93.8245 19.1433C93.2887 18.8921 92.7111 18.6242 92.0915 18.3395C91.5557 18.0884 91.0199 17.8288 90.4841 17.5609C89.9483 17.2763 89.4627 16.9414 89.0273 16.5563C88.592 16.1712 88.2404 15.694 87.9724 15.1247C87.7045 14.5386 87.5706 13.8186 87.5706 12.9646C87.5706 12.0437 87.7966 11.2149 88.2487 10.4781C88.7176 9.72465 89.4124 9.13023 90.3334 8.69488C91.2711 8.24279 92.4264 8.01674 93.7994 8.01674C94.4022 8.01674 95.005 8.0586 95.6078 8.14232C96.2273 8.22605 96.7966 8.32651 97.3157 8.44372C97.8348 8.54418 98.245 8.63628 98.5464 8.72C98.8645 8.80372 99.0236 8.84558 99.0236 8.84558L98.3957 11.9851C98.3957 11.9851 98.2283 11.96 97.8934 11.9098C97.5752 11.8428 97.1566 11.7758 96.6376 11.7088C96.1185 11.6251 95.5659 11.5581 94.9799 11.5079C94.3938 11.4409 93.8413 11.4074 93.3222 11.4074C93.0041 11.4074 92.7529 11.4326 92.5687 11.4828C92.3845 11.533 92.2255 11.6 92.0915 11.6837C91.9743 11.7674 91.8571 11.9014 91.7399 12.0856C91.6394 12.253 91.5892 12.546 91.5892 12.9646C91.5892 13.2828 91.7064 13.5758 91.9408 13.8437C92.1752 14.0949 92.4934 14.3293 92.8952 14.547C93.2971 14.7647 93.7324 14.9823 94.2013 15.2C94.7706 15.4679 95.365 15.7442 95.9845 16.0288C96.6208 16.3135 97.2152 16.6567 97.7678 17.0586C98.3204 17.4605 98.7724 17.9712 99.1241 18.5907C99.4757 19.1935 99.6515 19.9553 99.6515 20.8763C99.6515 21.9647 99.3836 22.9191 98.8478 23.7395C98.3287 24.56 97.592 25.1963 96.6376 25.6484C95.6999 26.1005 94.6031 26.3265 93.3473 26.3265ZM102.548 26V6.88651H106.441V13.9191L105.863 12.4623C106.098 12.3451 106.483 12.1609 107.018 11.9098C107.554 11.6419 108.165 11.3991 108.852 11.1814C109.555 10.9637 110.267 10.8549 110.987 10.8549C112.008 10.8549 112.787 11.0977 113.323 11.5833C113.875 12.0688 114.252 12.7219 114.453 13.5423C114.671 14.3628 114.779 15.2921 114.779 16.3302V26H110.886V17.0084C110.886 16.3553 110.853 15.8363 110.786 15.4512C110.719 15.066 110.618 14.7898 110.484 14.6223C110.401 14.5051 110.267 14.413 110.083 14.346C109.898 14.2791 109.706 14.2456 109.505 14.2456C109.254 14.2456 108.936 14.3042 108.551 14.4214C108.165 14.5219 107.772 14.6474 107.37 14.7981C106.985 14.9321 106.65 15.066 106.365 15.2C106.081 15.3172 105.913 15.3926 105.863 15.426L106.441 14.6223V26H102.548ZM124.147 26.3265C122.522 26.3265 121.233 26.0167 120.279 25.3972C119.324 24.7609 118.646 23.8651 118.244 22.7098C117.842 21.5544 117.641 20.1814 117.641 18.5907C117.641 17.0167 117.842 15.6605 118.244 14.5219C118.646 13.3665 119.324 12.4791 120.279 11.8595C121.233 11.2233 122.522 10.9051 124.147 10.9051C125.787 10.9051 127.077 11.2233 128.014 11.8595C128.952 12.4791 129.614 13.3665 129.999 14.5219C130.401 15.6605 130.601 17.0251 130.601 18.6158C130.601 20.1898 130.401 21.5544 129.999 22.7098C129.614 23.8651 128.952 24.7609 128.014 25.3972C127.077 26.0167 125.787 26.3265 124.147 26.3265ZM124.147 23.3628C124.632 23.3628 125.034 23.2958 125.352 23.1619C125.67 23.0279 125.921 22.7851 126.106 22.4335C126.307 22.0819 126.441 21.5963 126.507 20.9767C126.591 20.3572 126.633 19.5702 126.633 18.6158C126.633 17.6447 126.591 16.8493 126.507 16.2298C126.424 15.6102 126.29 15.133 126.106 14.7981C125.921 14.4465 125.67 14.2037 125.352 14.0698C125.034 13.9358 124.632 13.8688 124.147 13.8688C123.661 13.8688 123.251 13.9358 122.916 14.0698C122.598 14.2037 122.338 14.4465 122.137 14.7981C121.953 15.133 121.819 15.6102 121.735 16.2298C121.652 16.8493 121.61 17.6447 121.61 18.6158C121.61 19.5702 121.652 20.3572 121.735 20.9767C121.819 21.5963 121.953 22.0819 122.137 22.4335C122.338 22.7851 122.598 23.0279 122.916 23.1619C123.251 23.2958 123.661 23.3628 124.147 23.3628ZM133.673 30.1693V11.2316H136.16L136.612 12.7386H136.737C137.106 12.4707 137.524 12.2028 137.993 11.9349C138.479 11.6502 139.006 11.4074 139.576 11.2065C140.145 11.0056 140.756 10.9051 141.409 10.9051C142.364 10.9051 143.217 11.1647 143.971 11.6837C144.741 12.186 145.344 12.9898 145.779 14.0949C146.215 15.1833 146.432 16.6065 146.432 18.3647C146.432 19.9888 146.248 21.32 145.88 22.3581C145.511 23.3963 145.017 24.2084 144.398 24.7944C143.795 25.3637 143.125 25.7656 142.389 26C141.669 26.2177 140.949 26.3265 140.229 26.3265C139.86 26.3265 139.467 26.3014 139.048 26.2512C138.63 26.2177 138.278 26.1842 137.993 26.1507C137.709 26.1172 137.566 26.1005 137.566 26.1005V30.1693H133.673ZM140.078 23.1619C140.463 23.1619 140.764 23.1367 140.982 23.0865C141.2 23.0363 141.392 22.9526 141.56 22.8353C141.727 22.7181 141.878 22.5172 142.012 22.2326C142.146 21.9312 142.255 21.4707 142.338 20.8512C142.422 20.2316 142.464 19.3693 142.464 18.2642C142.464 17.5274 142.447 16.9163 142.414 16.4307C142.38 15.9451 142.33 15.5516 142.263 15.2502C142.196 14.9488 142.104 14.7228 141.987 14.5721C141.886 14.4214 141.744 14.3042 141.56 14.2205C141.392 14.1367 141.141 14.0949 140.806 14.0949C140.354 14.0949 139.877 14.1786 139.375 14.346C138.872 14.4967 138.445 14.6642 138.094 14.8484C137.742 15.0326 137.566 15.1498 137.566 15.2V22.8102C137.566 22.8102 137.817 22.8688 138.32 22.986C138.839 23.1033 139.425 23.1619 140.078 23.1619Z" fill="white"/>
</svg>
